<svg id="visual" viewBox="0 0 900 600" width="900" height="600" xmlns="http://www.w3.org/2000/svg" xmlns:xlink="http://www.w3.org/1999/xlink" version="1.1"><rect x="0" y="0" width="900" height="600" fill="#fff"></rect><path d="M0 213L21.5 215.2C43 217.3 86 221.7 128.8 211.2C171.7 200.7 214.3 175.3 257.2 170.2C300 165 343 180 385.8 180C428.7 180 471.3 165 514.2 162.5C557 160 600 170 642.8 176C685.7 182 728.3 184 771.2 193C814 202 857 218 878.5 226L900 234L900 0L878.5 0C857 0 814 0 771.2 0C728.3 0 685.7 0 642.8 0C600 0 557 0 514.2 0C471.3 0 428.7 0 385.8 0C343 0 300 0 257.2 0C214.3 0 171.7 0 128.8 0C86 0 43 0 21.5 0L0 0Z" fill="#ffc362"></path><path d="M0 146L21.5 143.3C43 140.7 86 135.3 128.8 134.8C171.7 134.3 214.3 138.7 257.2 139.2C300 139.7 343 136.3 385.8 146.2C428.7 156 471.3 179 514.2 185.7C557 192.3 600 182.7 642.8 182.7C685.7 182.7 728.3 192.3 771.2 186.2C814 180 857 158 878.5 147L900 136L900 0L878.5 0C857 0 814 0 771.2 0C728.3 0 685.7 0 642.8 0C600 0 557 0 514.2 0C471.3 0 428.7 0 385.8 0C343 0 300 0 257.2 0C214.3 0 171.7 0 128.8 0C86 0 43 0 21.5 0L0 0Z" fill="#ffb43e"></path><path d="M0 135L21.5 132.7C43 130.3 86 125.7 128.8 125.2C171.7 124.7 214.3 128.3 257.2 134.3C300 140.3 343 148.7 385.8 144.7C428.7 140.7 471.3 124.3 514.2 119.8C557 115.3 600 122.7 642.8 124.2C685.7 125.7 728.3 121.3 771.2 117.2C814 113 857 109 878.5 107L900 105L900 0L878.5 0C857 0 814 0 771.2 0C728.3 0 685.7 0 642.8 0C600 0 557 0 514.2 0C471.3 0 428.7 0 385.8 0C343 0 300 0 257.2 0C214.3 0 171.7 0 128.8 0C86 0 43 0 21.5 0L0 0Z" fill="#ffa502"></path><path d="M0 108L21.5 108.3C43 108.7 86 109.3 128.8 110.5C171.7 111.7 214.3 113.3 257.2 113.7C300 114 343 113 385.8 106C428.7 99 471.3 86 514.2 84C557 82 600 91 642.8 89.3C685.7 87.7 728.3 75.3 771.2 71.7C814 68 857 73 878.5 75.5L900 78L900 0L878.5 0C857 0 814 0 771.2 0C728.3 0 685.7 0 642.8 0C600 0 557 0 514.2 0C471.3 0 428.7 0 385.8 0C343 0 300 0 257.2 0C214.3 0 171.7 0 128.8 0C86 0 43 0 21.5 0L0 0Z" fill="#dc8f04"></path><path d="M0 65L21.5 61.7C43 58.3 86 51.7 128.8 49.5C171.7 47.3 214.3 49.7 257.2 48C300 46.3 343 40.7 385.8 40.8C428.7 41 471.3 47 514.2 45.8C557 44.7 600 36.3 642.8 31.5C685.7 26.7 728.3 25.3 771.2 30.8C814 36.3 857 48.7 878.5 54.8L900 61L900 0L878.5 0C857 0 814 0 771.2 0C728.3 0 685.7 0 642.8 0C600 0 557 0 514.2 0C471.3 0 428.7 0 385.8 0C343 0 300 0 257.2 0C214.3 0 171.7 0 128.8 0C86 0 43 0 21.5 0L0 0Z" fill="#ba7905"></path></svg>