<svg id="visual" viewBox="0 0 900 600" width="900" height="600" xmlns="http://www.w3.org/2000/svg" xmlns:xlink="http://www.w3.org/1999/xlink" version="1.1"><rect x="0" y="0" width="900" height="600" fill="#fff"></rect><path d="M0 385L21.5 382.8C43 380.7 86 376.3 128.8 386.8C171.7 397.3 214.3 422.7 257.2 427.8C300 433 343 418 385.8 418C428.7 418 471.3 433 514.2 435.5C557 438 600 428 642.8 422C685.7 416 728.3 414 771.2 405C814 396 857 380 878.5 372L900 364L900 601L878.5 601C857 601 814 601 771.2 601C728.3 601 685.7 601 642.8 601C600 601 557 601 514.2 601C471.3 601 428.7 601 385.8 601C343 601 300 601 257.2 601C214.3 601 171.7 601 128.8 601C86 601 43 601 21.5 601L0 601Z" fill="#ffc362"></path><path d="M0 452L21.5 454.7C43 457.3 86 462.7 128.8 463.2C171.7 463.7 214.3 459.3 257.2 458.8C300 458.3 343 461.7 385.8 451.8C428.7 442 471.3 419 514.2 412.3C557 405.7 600 415.3 642.8 415.3C685.7 415.3 728.3 405.7 771.2 411.8C814 418 857 440 878.5 451L900 462L900 601L878.5 601C857 601 814 601 771.2 601C728.3 601 685.7 601 642.8 601C600 601 557 601 514.2 601C471.3 601 428.7 601 385.8 601C343 601 300 601 257.2 601C214.3 601 171.7 601 128.8 601C86 601 43 601 21.5 601L0 601Z" fill="#ffb43e"></path><path d="M0 463L21.5 465.3C43 467.7 86 472.3 128.8 472.8C171.7 473.3 214.3 469.7 257.2 463.7C300 457.7 343 449.3 385.8 453.3C428.7 457.3 471.3 473.7 514.2 478.2C557 482.7 600 475.3 642.8 473.8C685.7 472.3 728.3 476.7 771.2 480.8C814 485 857 489 878.5 491L900 493L900 601L878.5 601C857 601 814 601 771.2 601C728.3 601 685.7 601 642.8 601C600 601 557 601 514.2 601C471.3 601 428.7 601 385.8 601C343 601 300 601 257.2 601C214.3 601 171.7 601 128.8 601C86 601 43 601 21.5 601L0 601Z" fill="#ffa502"></path><path d="M0 490L21.5 489.7C43 489.3 86 488.7 128.8 487.5C171.7 486.3 214.3 484.7 257.2 484.3C300 484 343 485 385.8 492C428.7 499 471.3 512 514.2 514C557 516 600 507 642.8 508.7C685.7 510.3 728.3 522.7 771.2 526.3C814 530 857 525 878.5 522.5L900 520L900 601L878.5 601C857 601 814 601 771.2 601C728.3 601 685.7 601 642.8 601C600 601 557 601 514.2 601C471.3 601 428.7 601 385.8 601C343 601 300 601 257.2 601C214.3 601 171.7 601 128.8 601C86 601 43 601 21.5 601L0 601Z" fill="#dc8f04"></path><path d="M0 533L21.5 536.3C43 539.7 86 546.3 128.8 548.5C171.7 550.7 214.3 548.3 257.2 550C300 551.7 343 557.3 385.8 557.2C428.7 557 471.3 551 514.2 552.2C557 553.3 600 561.7 642.8 566.5C685.7 571.3 728.3 572.7 771.2 567.2C814 561.7 857 549.3 878.5 543.2L900 537L900 601L878.5 601C857 601 814 601 771.2 601C728.3 601 685.7 601 642.8 601C600 601 557 601 514.2 601C471.3 601 428.7 601 385.8 601C343 601 300 601 257.2 601C214.3 601 171.7 601 128.8 601C86 601 43 601 21.5 601L0 601Z" fill="#ba7905"></path></svg>